{"title":"Robot Wars (1993)","uid":8792686,"size":735928320,"categoryP":"video","categoryS":"movies","magnet":"?xt=urn:btih:0599d7cd7c05065f296da095f84f2875c8b545d9&amp;dn=Robot+Wars+%281993%29&amp;tr=udp%3A%2F%2Ftracker.openbittorrent.com%3A80&amp;tr=udp%3A%2F%2Fopen.demonii.com%3A1337&amp;tr=udp%3A%2F%2Ftracker.coppersurfer.tk%3A6969&amp;tr=udp%3A%2F%2Fexodus.desync.com%3A6969","seeders":10,"leechers":0,"uploader":"TheGodlessWonder","files":1,"time":1375989840,"description":"Format                                   : AVI\nFormat/Info                              : Audio Video Interleave\nFile size                                : 702 MiB\nDuration                                 : 1h 11mn\nOverall bit rate                         : 1 373 Kbps\nWriting application                      : VirtualDubMod 1.5.4.1 (build 2178/release)\nWriting library                          : VirtualDubMod build 2178/release\n\nVideo\nID                                       : 0\nFormat                                   : MPEG-4 Visual\nFormat profile                           : Advanced Simple@L5\nFormat settings, BVOP                    : 1\nFormat settings, QPel                    : No\nFormat settings, GMC                     : No warppoints\nFormat settings, Matrix                  : Custom\nCodec ID                                 : XVID\nCodec ID/Hint                            : XviD\nDuration                                 : 1h 11mn\nBit rate                                 : 1 238 Kbps\nWidth                                    : 560 pixels\nHeight                                   : 416 pixels\nDisplay aspect ratio                     : 4:3\nFrame rate                               : 23.976 fps\nColor space                              : YUV\nChroma subsampling                       : 4:2:0\nBit depth                                : 8 bits\nScan type                                : Progressive\nCompression mode                         : Lossy\nBits/(Pixel*Frame)                       : 0.222\nStream size                              : 633 MiB (90%)\nWriting library                          : XviD 1.2.0.dev47 (UTC 2006-11-01)\n\nAudio\nID                                       : 1\nFormat                                   : MPEG Audio\nFormat version                           : Version 1\nFormat profile                           : Layer 3\nMode                                     : Joint stereo\nMode extension                           : MS Stereo\nCodec ID                                 : 55\nCodec ID/Hint                            : MP3\nDuration                                 : 1h 11mn\nBit rate mode                            : Constant\nBit rate                                 : 128 Kbps\nChannel(s)                               : 2 channels\nSampling rate                            : 48.0 KHz\nCompression mode                         : Lossy\nStream size                              : 65.5 MiB (9%)\nAlignment                                : Aligned on interleaves\nInterleave, duration                     : 83 ms (2.00 video frames)\nInterleave, preload duration             : 504 ms\nWriting library                          : LAME3.97 \nEncoding settings                        : -m j -V 4 -q 2 -lowpass 17 -b 128\nLanguage                                 : English\n\nSummary:\nIn the year 2041, the rebel Centros are a plague to the survivors of the great toxic gas scare of 1993. A renegade Megarobot pilot and an archaeologist must team up (despite personal differences, a reluctant romance, and official pressure to cease and desist) to thwart the Centro's attempts to resurrect a hidden Megarobot, with which they can challenge the prevailing order. \n\nNote: Sorry about the long media info. I didn't know what other people think is relevant so I pasted all of it in the description here.","torrent":{"xt":"urn:btih:0599d7cd7c05065f296da095f84f2875c8b545d9","amp;dn":"Robot+Wars+%281993%29","amp;tr":["udp%3A%2F%2Ftracker.openbittorrent.com%3A80","udp%3A%2F%2Fopen.demonii.com%3A1337","udp%3A%2F%2Ftracker.coppersurfer.tk%3A6969","udp%3A%2F%2Fexodus.desync.com%3A6969"],"infoHash":"0599d7cd7c05065f296da095f84f2875c8b545d9","infoHashBuffer":{"type":"Buffer","data":[5,153,215,205,124,5,6,95,41,109,160,149,248,79,40,117,200,181,69,217]},"announce":[],"urlList":[]}}